<?xml version="1.0" encoding="UTF-8"?>
<svg id="Camada_1" data-name="Camada 1" xmlns="http://www.w3.org/2000/svg" viewBox="0 0 24 24">
  <defs>
    <style>
      .cls-1 {
        fill: #4b5563;
      }
    </style>
  </defs>
  <g id="icon">
    <path class="cls-1" d="M15.59,5.45h6.02v1.5h-6.02v-1.5Z"/>
    <path class="cls-1" d="M24,13.86c0-3.12-2.42-5.66-5.4-5.66s-5.4,2.53-5.4,5.66,2.25,5.66,5.4,5.66c2.4,0,4.45-1.06,5.15-3.59h-2.53c-.47.88-1.4,1.44-2.4,1.43-1.42,0-2.66-1.01-2.59-2.72h7.73c.04-.25.04-.51.04-.78ZM16.23,12.75c.19-1.41,1.18-2.3,2.38-2.3s2.18.9,2.38,2.3h-4.76Z"/>
    <path class="cls-1" d="M12.27,14.09c-.2-2.17-2.65-2.9-2.65-2.9.93-.44,2.04-1.33,2.03-3.29-.02-2.84-2.98-3.41-3.93-3.41H0v14.75h7.02c.98,0,2.01-.13,2.84-.54,2.22-1.09,2.61-2.44,2.42-4.61ZM3.25,7.03h3.32s1.96-.05,1.96,1.69-1.96,1.69-1.96,1.69h-3.32v-3.38ZM6.76,16.74h-3.52v-4.03h3.52s2.34-.05,2.34,2.02-2.34,2.02-2.34,2.02Z"/>
  </g>
</svg>