<?xml version="1.0" encoding="UTF-8"?>
<svg id="Camada_1" data-name="Camada 1" xmlns="http://www.w3.org/2000/svg" viewBox="0 0 24 24">
  <defs>
    <style>
      .cls-1 {
        fill: #4b5563;
        fill-rule: evenodd;
      }
    </style>
  </defs>
  <path class="cls-1" d="M11.42.01C5.08.32.08,5.59.1,11.94c0,1.93.47,3.76,1.3,5.37L.13,23.44c-.07.33.23.62.56.54l6.01-1.42c1.54.77,3.28,1.21,5.11,1.24,6.48.1,11.88-5.04,12.08-11.52C24.11,5.34,18.38-.32,11.42.01h0ZM18.59,18.49c-1.76,1.76-4.1,2.73-6.59,2.73-1.46,0-2.85-.33-4.15-.97l-.84-.42-3.69.87.78-3.77-.41-.81c-.67-1.32-1.01-2.74-1.01-4.23,0-2.49.97-4.83,2.73-6.59,1.74-1.74,4.12-2.73,6.59-2.73s4.83.97,6.59,2.73c1.76,1.76,2.73,4.1,2.73,6.59,0,2.47-.98,4.85-2.73,6.59h0Z"/>
  <path class="cls-1" d="M17.78,14.48l-2.31-.66c-.3-.09-.63,0-.85.22l-.56.57c-.24.24-.6.32-.91.19-1.09-.44-3.39-2.48-3.97-3.5-.17-.29-.14-.66.07-.93l.49-.64c.19-.25.23-.58.11-.87l-.97-2.19c-.23-.53-.9-.68-1.34-.31-.64.54-1.41,1.37-1.5,2.29-.16,1.62.53,3.65,3.15,6.1,3.03,2.82,5.45,3.2,7.03,2.82.9-.22,1.61-1.09,2.06-1.8.31-.49.06-1.13-.49-1.29h0Z"/>
</svg>